<svg xmlns="http://www.w3.org/2000/svg" viewBox="0 0 448 512"><!--!Font Awesome Free 6.6.0 by @fontawesome - https://fontawesome.com License - https://fontawesome.com/license/free Copyright 2024 Fonticons, Inc.--><path d="M188.8 512c45.6 0 83.2-37.8 83.2-83.2v-35.6a93.1 93.1 0 0 0 22.1-7.9c22 2.5 45-3.5 62.8-16C409.3 368.1 448 331.8 448 269.3V248c0-60.1-40-98.5-40-127.2v-2.7c5-5.7 8-13.5 8-22.1V32c0-17.7-12.9-32-28.8-32H156.8C140.9 0 128 14.3 128 32v64c0 8.6 3 16.4 8 22.1v2.7c0 7-6.2 14.9-23.7 30.2l-.1 .1-.1 .1c-9.9 8.9-20.8 18.1-33.3 25.9C48.5 195.8 0 207.5 0 252.8c0 56.9 35.3 92 83.2 92 8 0 15.5-.8 22.4-2.2V428.8c0 45.1 38.1 83.2 83.2 83.2zm0-48c-18.7 0-35.2-16.8-35.2-35.2V270.4c-17.3 0-35.2 26.4-70.4 26.4-26.4 0-35.2-20.6-35.2-44 0-8.8 32.7-20.4 56.1-34.9 14.6-9.1 27.2-19.5 39.9-30.8 18.4-16.1 36.6-33.8 39.6-59.1h176.8C364.1 170.8 400 202.5 400 248v21.3c0 40.5-22.2 57.1-61.3 50.6-8 14.6-34 24.2-53.6 12.9-18.2 19.4-46.4 17.8-61.1 5V428.8c0 19-16.2 35.2-35.2 35.2zM328 64c0-13.3 10.7-24 24-24s24 10.7 24 24-10.7 24-24 24-24-10.7-24-24z"/></svg>